<svg xmlns="http://www.w3.org/2000/svg" baseProfile="full" version="1.1" style="fill: none;" width="615px" height="300px"><path style="stroke-width: 15px; stroke-linecap: round; stroke-linejoin: round; stroke: rgb(106, 106, 106); fill: none;" d=""/><path style="stroke-width: 15px; stroke-linecap: round; stroke-linejoin: round; stroke: rgb(74, 74, 74); fill: none;" d=""/><path style="stroke-width: 5px; stroke-linecap: square; stroke-linejoin: miter; stroke: rgb(10, 10, 10); fill: none;" d="M15,15 L15,15 L15,75 L45,75 L45,15 Z M60,15 L60,15 L60,75 M75,15 L75,15 L75,75 M90,15 L90,15 L90,75 M105,15 L105,15 L105,75 L135,75 L135,15 Z M150,15 L150,15 L150,75 L180,75 L180,15 Z M195,15 L195,15 L195,75 L225,75 L225,15 Z M240,15 L240,15 L240,75 L270,75 L270,15 Z M15,90 L15,90 L15,150 L45,150 L45,90 Z M60,90 L60,90 L60,150 M75,90 L75,90 L75,150 M90,90 L90,90 L90,150 L120,150 L120,90 Z M135,90 L135,90 L135,150 M150,90 L150,90 L150,150 L180,150 L180,90 Z M195,90 L195,90 L195,150 L225,150 L225,90 Z M270,90 L270,90 L270,150 M15,165 L15,165 L15,225 L45,225 L45,165 Z M60,165 L60,165 L60,225 M75,165 L75,165 L75,225 M90,165 L90,165 L90,225 L120,225 L120,165 Z M135,165 L135,165 L135,225 L165,225 L165,165 Z M180,165 L180,165 L180,225 L210,225 L210,165 Z M225,165 L225,165 L225,225 L255,225 L255,165 Z M270,165 L270,165 L270,225 "/></svg>